Coordinates
version=1
nRows=7
nColumns=40
inDegrees=yes

Units are S.I. units (second, meters, Newtons, ...)
Angles are in degrees.

endheader
time	pelvis_tilt	pelvis_list	pelvis_rotation	pelvis_tx	pelvis_ty	pelvis_tz	hip_flexion_r	hip_adduction_r	hip_rotation_r	knee_angle_r	knee_angle_r_beta	ankle_angle_r	subtalar_angle_r	mtp_angle_r	hip_flexion_l	hip_adduction_l	hip_rotation_l	knee_angle_l	knee_angle_l_beta	ankle_angle_l	subtalar_angle_l	mtp_angle_l	lumbar_extension	lumbar_bending	lumbar_rotation	arm_flex_r	arm_add_r	arm_rot_r	elbow_flex_r	pro_sup_r	wrist_flex_r	wrist_dev_r	arm_flex_l	arm_add_l	arm_rot_l	elbow_flex_l	pro_sup_l	wrist_flex_l	wrist_dev_l
     28.36328571	     -6.81305528	     -5.35356507	     -6.30904700	      1.09242494	      0.92479896	      0.44947621	     27.23170113	      0.22790536	    -12.04496761	     13.04805111	     13.04805111	      3.47028233	      4.98078519	      8.69331532	      7.10662438	     -7.61864109	    -11.74475893	     18.00701539	     18.00701539	     16.88540702	    -12.14367238	     -1.89536879	    -11.18558748	      6.63565429	      0.85964616	      6.99957010	    -13.45555535	    -15.19311837	     32.28231805	     46.90264424	      0.00000000	      0.00000000	     13.12427629	    -16.64293330	      5.52754272	     65.63217924	     45.77825339	      0.00000000	      0.00000000
     28.37657143	     -6.74600590	     -5.08271461	     -6.29158717	      1.09422271	      0.92371027	      0.45138434	     26.40836675	      0.22876805	    -12.66903256	     12.03174096	     12.03174096	      3.27740341	      5.58718494	      8.72541003	      6.37324201	     -7.37279125	    -11.91589944	     17.70185008	     17.70185008	     17.25243702	    -11.87291415	     -1.89167236	    -11.02882146	      6.47535967	      0.90330262	      7.00087951	    -13.21659106	    -14.98358873	     32.39271271	     46.87491009	      0.00000000	      0.00000000	     13.29526089	    -16.47965900	      5.54662819	     65.65090160	     45.79514126	      0.00000000	      0.00000000
     28.38985714	     -6.57188229	     -4.87708447	     -6.26341595	      1.09639465	      0.92286033	      0.45342214	     25.59895654	      0.21393248	    -13.25569558	     11.67778403	     11.67778403	      2.97428674	      5.92797511	      8.14714282	      5.45754643	     -7.17882191	    -12.04695668	     17.33398626	     17.33398626	     17.67772543	    -11.55927466	     -1.71608133	    -10.91196550	      6.38124531	      1.02494481	      6.97563249	    -13.06983670	    -14.69471368	     32.55563348	     46.83823687	      0.00000000	      0.00000000	     13.39369909	    -16.25100848	      5.52892112	     65.56245938	     45.81590988	      0.00000000	      0.00000000
     28.40314286	     -6.58629154	     -4.74926168	     -6.23573155	      1.09855240	      0.92177736	      0.45558422	     25.15244020	      0.25602777	    -13.61186723	     11.88384811	     11.88384811	      2.83198376	      5.70767793	      8.01231596	      4.93806585	     -7.12836629	    -12.02858103	     17.32596226	     17.32596226	     18.04070962	    -11.59858935	     -1.77137973	    -10.56816770	      6.36532192	      1.09075918	      6.98656887	    -12.91797053	    -14.62760625	     32.59151686	     46.83063237	      0.00000000	      0.00000000	     13.31288315	    -16.07641481	      5.56661113	     65.53949603	     45.81491581	      0.00000000	      0.00000000
     28.41642857	     -6.22119380	     -4.44246439	     -6.22172418	      1.10136437	      0.92124477	      0.45775290	     24.45506685	      0.00640265	    -13.75439086	     12.48895576	     12.48895576	      1.40242646	      5.26475276	      2.78494458	      3.74461262	     -6.79725034	    -12.21765760	     16.92546531	     16.92546531	     18.93027082	    -10.96978662	     -0.04262959	    -10.52745316	      6.17552210	      1.43187151	      6.57108121	    -13.06749120	    -13.42151110	     33.22614910	     46.68955983	      0.00000000	      0.00000000	     13.52901189	    -15.40559667	      5.00320888	     64.75730460	     45.91126135	      0.00000000	      0.00000000
     28.42971429	     -5.91926466	     -4.47373662	     -6.16121392	      1.10394029	      0.92080644	      0.46014378	     23.91417692	      0.07676538	    -13.78209331	     13.45244188	     13.45244188	      1.43224568	      4.56927862	      1.96945512	      2.93467708	     -6.92839271	    -12.14491332	     17.10951018	     17.10951018	     19.30773215	    -10.99416490	      0.07437552	    -10.59058166	      6.40397914	      1.61565276	      6.74181614	    -13.04819136	    -13.23409944	     33.38348097	     46.66706522	      0.00000000	      0.00000000	     13.31665142	    -15.29915639	      4.98027350	     64.64815261	     45.92021759	      0.00000000	      0.00000000
     28.44300000	     -5.66025415	     -4.33448256	     -6.11058323	      1.10660578	      0.92035433	      0.46270610	     23.43370161	      0.06272417	    -13.17670118	     14.26309065	     14.26309065	      0.22478954	      2.82444602	     -2.77229409	      2.29493928	     -6.94275702	    -12.25747752	     17.55576296	     17.55576296	     20.29924985	    -10.56950878	      1.84370827	    -10.46518657	      6.37527247	      1.72197070	      6.48483039	    -13.24976297	    -11.52757568	     34.11632618	     46.47995513	      0.00000000	      0.00000000	     13.01371984	    -14.81885306	      4.14397907	     64.24094249	     46.07022157	      0.00000000	      0.00000000
